<svg xmlns="http://www.w3.org/2000/svg" width="18.991" height="18.98" viewBox="0 0 18.991 18.98">
  <g id="Group_3" data-name="Group 3" transform="translate(-478.198 -2448.96)">
    <path id="Color_Fill_10" data-name="Color Fill 10" d="M496.465,2462.086a9.308,9.308,0,0,1-6,5.425,14.593,14.593,0,0,1-1.677.358l-.711.065-.437.007a5.9,5.9,0,0,1-1.253-.111c-.472-.1-.949-.145-1.383-.28a11.159,11.159,0,0,1-1.2-.488,9.382,9.382,0,0,1-5.48-10.061,11.075,11.075,0,0,1,.457-1.83,9.362,9.362,0,0,1,5.467-5.561,12.891,12.891,0,0,1,1.951-.514l.594-.1.326-.026a10.486,10.486,0,0,1,1.983.091,12.978,12.978,0,0,1,1.422.319,9.336,9.336,0,0,1,5.9,5.313,11.6,11.6,0,0,1,.7,2.526,6.509,6.509,0,0,1,.065,1.153A9.209,9.209,0,0,1,496.465,2462.086Zm-4.286-1.211a4.09,4.09,0,0,0-.385-.417c-.211-.26-.624-.749-1.037-.781a.693.693,0,0,0-.444.189c-.308.226-.5.575-.809.794s-.576.169-.685-.2a3.384,3.384,0,0,1-.039-.847v-1.589q0-2.425.006-4.851,0-.257.007-.514c.08-.528.007-1.686-.254-1.888s-.942-.146-1.416-.144l-.222.02a.731.731,0,0,0-.457.208c-.155.206-.12.475-.17.8q.01.921.02,1.843v6.14a3.891,3.891,0,0,1-.033.814c-.1.407-.362.416-.678.209-.348-.228-.55-.6-.887-.833a.624.624,0,0,0-.483-.156,1.036,1.036,0,0,0-.444.267,3.49,3.49,0,0,0-.933,1,.552.552,0,0,0,.1.541,4.277,4.277,0,0,0,.646.749c.43.428.862.854,1.292,1.282l.626.632c.265.327.628.576.894.905a3.551,3.551,0,0,0,.77.723.553.553,0,0,0,.385.143c.523-.083.908-.666,1.22-.99.869-.9,1.756-1.8,2.662-2.664C491.7,2462.009,492.51,2461.421,492.179,2460.875Z" fill="#3b5aff"/>
  </g>
</svg>
